<?xml version="1.0" encoding="utf-8"?>
<svg xmlns="http://www.w3.org/2000/svg" height="1024" width="1024" viewBox="0 0 1024 1024">
  <g>
    <path id="path1" transform="rotate(0,512,512) translate(0,127.999969482422) scale(32,32)  " fill="#FFFFFF" d="M31,9.1670075C31.553,9.1670075,32,9.614007,32,10.167007L32,13.833007C32,14.386007 31.553,14.833007 31,14.833007 30.447,14.833007 30,14.386007 30,13.833007L30,10.167007C30,9.614007,30.447,9.1670075,31,9.1670075z M16,9.1670075C16.553,9.1670075,17,9.614007,17,10.167007L17,13.833007C17,14.386007 16.553,14.833007 16,14.833007 15.447,14.833007 15,14.386007 15,13.833007L15,10.167007C15,9.614007,15.447,9.1670075,16,9.1670075z M1,8.25C1.5529995,8.25,2,8.6970005,2,9.250001L2,12.917007C2,13.470007 1.5529995,13.917007 1,13.917007 0.4470005,13.917007 0,13.470007 0,12.917007L0,9.250001C0,8.6970005,0.4470005,8.25,1,8.25z M27,5.4999996C27.553,5.4999996,28,5.9469996,28,6.4999996L28,17.5C28,18.053 27.553,18.5 27,18.5 26.447,18.5 26,18.053 26,17.5L26,6.4999996C26,5.9469996,26.447,5.4999996,27,5.4999996z M19,5.4999996C19.553,5.4999996,20,5.9469996,20,6.4999996L20,17.5C20,18.053 19.553,18.5 19,18.5 18.447,18.5 18,18.053 18,17.5L18,6.4999996C18,5.9469996,18.447,5.4999996,19,5.4999996z M13,5.4999996C13.553,5.4999996,14,5.9469996,14,6.4999996L14,17.5C14,18.053 13.553,18.5 13,18.5 12.447,18.5 12,18.053 12,17.5L12,6.4999996C12,5.9469996,12.447,5.4999996,13,5.4999996z M5,5.4999996C5.5529995,5.4999996,6,5.9469996,6,6.4999996L6,17.5C6,18.053 5.5529995,18.5 5,18.5 4.4470005,18.5 4,18.053 4,17.5L4,6.4999996C4,5.9469996,4.4470005,5.4999996,5,5.4999996z M23,1.907349E-06C23.552979,1.952744E-06,24,0.44699292,24,1.0000019L24,23.000002C24,23.552996 23.552979,24.000002 23,24.000002 22.447021,24.000002 22,23.552996 22,23.000002L22,1.0000019C22,0.44699292,22.447021,1.952744E-06,23,1.907349E-06z M9,2.2737368E-13C9.5530005,-3.1776381E-07,10,0.44699968,10,0.99999951L10,23C10,23.553 9.5530005,24 9,24 8.4469995,24 8,23.553 8,23L8,0.99999951C8,0.44699968,8.4469995,-3.1776381E-07,9,2.2737368E-13z" />
  </g>
</svg>

